<svg xmlns="http://www.w3.org/2000/svg" xmlns:xlink="http://www.w3.org/1999/xlink" width="300" zoomAndPan="magnify" viewBox="0 0 224.87999 67.499998" height="90" preserveAspectRatio="xMidYMid meet" version="1.0"><path stroke-linecap="butt" transform="matrix(0.744485, -0.000000000000000092, 0.000000000000000092, 0.744485, 7.467571, 32.385108)" fill="none" stroke-linejoin="miter" d="M 11.250967 1.497534 L 270.74759 1.497534 " stroke="#000000" stroke-width="3" stroke-opacity="1" stroke-miterlimit="4"/><path stroke-linecap="round" transform="matrix(0.744485, -0.000000000000000092, 0.000000000000000092, 0.744485, 7.467571, 32.385108)" fill="none" stroke-linejoin="round" d="M 1.502201 1.497534 C 1.502201 -0.984256 3.517016 -2.999071 5.998806 -2.999071 C 8.485843 -2.999071 10.500658 -0.984256 10.500658 1.497534 C 10.500658 3.984571 8.485843 5.999386 5.998806 5.999386 C 3.517016 5.999386 1.502201 3.984571 1.502201 1.497534 " stroke="#000000" stroke-width="3" stroke-opacity="1" stroke-miterlimit="4"/><path stroke-linecap="round" transform="matrix(0.744485, -0.000000000000000092, 0.000000000000000092, 0.744485, 7.467571, 32.385108)" fill="none" stroke-linejoin="round" d="M 280.501603 1.497534 C 280.501603 3.984571 278.486788 5.999386 275.999751 5.999386 C 273.512714 5.999386 271.497899 3.984571 271.497899 1.497534 C 271.497899 -0.984256 273.512714 -2.999071 275.999751 -2.999071 C 278.486788 -2.999071 280.501603 -0.984256 280.501603 1.497534 " stroke="#000000" stroke-width="3" stroke-opacity="1" stroke-miterlimit="4"/></svg>