<svg xmlns="http://www.w3.org/2000/svg" xmlns:xlink="http://www.w3.org/1999/xlink" width="380" zoomAndPan="magnify" viewBox="0 0 285 187.499995" height="250" preserveAspectRatio="xMidYMid meet" version="1.0"><defs><clipPath id="9bcd5c001e"><path d="M 101.148438 182 L 111.652344 182 L 111.652344 186.921875 L 101.148438 186.921875 Z M 101.148438 182 " clip-rule="nonzero"/></clipPath><clipPath id="d57d0fabdc"><path d="M 55.742188 0 L 248.566406 0 L 248.566406 152.40625 L 55.742188 152.40625 Z M 55.742188 0 " clip-rule="nonzero"/></clipPath><clipPath id="2930eec21f"><path d="M 45.859375 24 L 245 24 L 245 182 L 45.859375 182 Z M 45.859375 24 " clip-rule="nonzero"/></clipPath></defs><path fill="#993e25" d="M 242.289062 29.222656 C 242.289062 29.222656 242.023438 29.265625 241.601562 29.351562 C 241.183594 29.441406 240.609375 29.570312 240.019531 29.742188 C 239.433594 29.921875 238.832031 30.109375 238.378906 30.285156 C 238.269531 30.324219 238.164062 30.363281 238.070312 30.394531 C 237.980469 30.433594 237.902344 30.464844 237.835938 30.492188 C 237.699219 30.546875 237.625 30.578125 237.625 30.578125 L 239.226562 34.546875 C 239.226562 34.546875 239.289062 34.519531 239.402344 34.476562 C 239.457031 34.453125 239.523438 34.425781 239.601562 34.394531 C 239.679688 34.367188 239.765625 34.335938 239.859375 34.300781 C 240.234375 34.152344 240.730469 34 241.207031 33.855469 C 241.6875 33.714844 242.140625 33.613281 242.46875 33.542969 C 242.796875 33.476562 243 33.445312 243 33.445312 L 242.289062 29.222656 " fill-opacity="1" fill-rule="nonzero"/><path fill="#993e25" d="M 225.601562 38.839844 L 228.597656 41.894531 C 228.597656 41.894531 228.664062 41.828125 228.78125 41.710938 C 228.894531 41.589844 229.066406 41.441406 229.265625 41.253906 C 229.464844 41.066406 229.695312 40.835938 229.949219 40.613281 C 230.203125 40.390625 230.46875 40.152344 230.738281 39.914062 C 231.007812 39.6875 231.277344 39.460938 231.53125 39.25 C 231.78125 39.039062 232.023438 38.863281 232.226562 38.699219 C 232.324219 38.621094 232.417969 38.546875 232.5 38.480469 C 232.582031 38.421875 232.652344 38.367188 232.714844 38.324219 C 232.832031 38.234375 232.898438 38.1875 232.898438 38.1875 L 230.34375 34.75 C 230.34375 34.75 230.269531 34.808594 230.136719 34.90625 C 230.070312 34.957031 229.988281 35.015625 229.898438 35.082031 C 229.804688 35.15625 229.703125 35.238281 229.589844 35.328125 C 229.367188 35.507812 229.101562 35.707031 228.820312 35.9375 C 228.539062 36.171875 228.242188 36.421875 227.941406 36.671875 C 227.648438 36.933594 227.351562 37.195312 227.078125 37.441406 C 226.796875 37.6875 226.546875 37.9375 226.328125 38.140625 C 226.109375 38.347656 225.921875 38.511719 225.796875 38.640625 C 225.671875 38.765625 225.601562 38.839844 225.601562 38.839844 " fill-opacity="1" fill-rule="nonzero"/><path fill="#993e25" d="M 215.058594 52.433594 L 218.707031 54.667969 C 218.707031 54.667969 218.9375 54.296875 219.277344 53.746094 C 219.363281 53.605469 219.457031 53.457031 219.554688 53.296875 C 219.65625 53.144531 219.761719 52.984375 219.875 52.816406 C 220.09375 52.480469 220.324219 52.121094 220.5625 51.761719 C 220.796875 51.410156 221.039062 51.066406 221.261719 50.738281 C 221.488281 50.417969 221.691406 50.101562 221.878906 49.855469 C 222.246094 49.351562 222.488281 49.015625 222.488281 49.015625 L 219.039062 46.480469 C 219.039062 46.480469 218.785156 46.835938 218.394531 47.371094 C 218.195312 47.632812 217.980469 47.960938 217.742188 48.304688 C 217.507812 48.648438 217.25 49.007812 217.003906 49.382812 C 216.757812 49.757812 216.511719 50.136719 216.28125 50.488281 C 216.164062 50.667969 216.054688 50.835938 215.945312 51 C 215.84375 51.164062 215.746094 51.320312 215.65625 51.464844 C 215.296875 52.046875 215.058594 52.433594 215.058594 52.433594 " fill-opacity="1" fill-rule="nonzero"/><path fill="#993e25" d="M 206.648438 69.207031 L 210.605469 70.84375 C 210.605469 70.84375 210.789062 70.410156 211.0625 69.765625 C 211.199219 69.441406 211.359375 69.0625 211.53125 68.65625 C 211.574219 68.554688 211.617188 68.453125 211.660156 68.347656 C 211.707031 68.246094 211.753906 68.144531 211.800781 68.039062 C 211.894531 67.832031 211.992188 67.617188 212.085938 67.40625 C 212.464844 66.558594 212.839844 65.707031 213.144531 65.089844 C 213.4375 64.464844 213.636719 64.050781 213.636719 64.050781 L 209.777344 62.195312 C 209.777344 62.195312 209.570312 62.625 209.269531 63.273438 C 208.953125 63.910156 208.566406 64.789062 208.175781 65.664062 C 208.078125 65.882812 207.976562 66.101562 207.882812 66.316406 C 207.832031 66.425781 207.785156 66.53125 207.738281 66.636719 C 207.691406 66.746094 207.648438 66.851562 207.605469 66.957031 C 207.425781 67.371094 207.261719 67.761719 207.121094 68.09375 C 206.839844 68.761719 206.648438 69.207031 206.648438 69.207031 " fill-opacity="1" fill-rule="nonzero"/><path fill="#993e25" d="M 200.191406 87.757812 L 204.296875 88.964844 C 204.296875 88.964844 204.4375 88.492188 204.648438 87.789062 C 204.859375 87.085938 205.132812 86.140625 205.433594 85.214844 C 205.730469 84.289062 206.019531 83.355469 206.25 82.664062 C 206.480469 81.976562 206.636719 81.519531 206.636719 81.519531 L 202.578125 80.15625 C 202.578125 80.15625 202.421875 80.625 202.183594 81.328125 C 201.949219 82.035156 201.652344 82.988281 201.351562 83.933594 C 201.042969 84.878906 200.761719 85.84375 200.546875 86.5625 C 200.332031 87.28125 200.191406 87.757812 200.191406 87.757812 " fill-opacity="1" fill-rule="nonzero"/><path fill="#993e25" d="M 195.078125 107.957031 L 199.230469 109 C 199.230469 109 199.378906 108.382812 199.601562 107.457031 C 199.710938 106.992188 199.84375 106.453125 199.980469 105.875 C 200.046875 105.589844 200.117188 105.296875 200.1875 105 C 200.242188 104.761719 200.300781 104.515625 200.355469 104.273438 C 200.582031 103.296875 200.804688 102.320312 200.972656 101.585938 C 201.058594 101.222656 201.128906 100.917969 201.179688 100.703125 C 201.234375 100.492188 201.261719 100.371094 201.261719 100.371094 L 197.101562 99.371094 C 197.101562 99.371094 197.070312 99.496094 197.019531 99.710938 C 196.964844 99.921875 196.894531 100.234375 196.808594 100.605469 C 196.636719 101.347656 196.410156 102.339844 196.179688 103.332031 C 196.125 103.582031 196.066406 103.828125 196.011719 104.070312 C 195.941406 104.359375 195.875 104.644531 195.808594 104.921875 C 195.671875 105.484375 195.546875 106.007812 195.4375 106.457031 C 195.222656 107.355469 195.078125 107.957031 195.078125 107.957031 " fill-opacity="1" fill-rule="nonzero"/><path fill="#993e25" d="M 186.515625 131.625 L 190.355469 133.519531 C 190.355469 133.519531 190.371094 133.484375 190.410156 133.414062 C 190.441406 133.339844 190.492188 133.238281 190.554688 133.105469 C 190.679688 132.835938 190.859375 132.457031 191.074219 132 C 191.285156 131.542969 191.535156 131.011719 191.800781 130.4375 C 191.933594 130.152344 192.070312 129.855469 192.210938 129.554688 C 192.277344 129.40625 192.347656 129.253906 192.417969 129.101562 C 192.484375 128.949219 192.546875 128.796875 192.613281 128.644531 C 193.121094 127.414062 193.632812 126.1875 194.015625 125.265625 C 194.109375 125.035156 194.199219 124.824219 194.273438 124.636719 C 194.34375 124.449219 194.40625 124.285156 194.457031 124.152344 C 194.554688 123.882812 194.613281 123.726562 194.613281 123.726562 L 190.613281 122.199219 C 190.613281 122.199219 190.558594 122.347656 190.464844 122.609375 C 190.414062 122.738281 190.355469 122.894531 190.289062 123.078125 C 190.214844 123.257812 190.132812 123.460938 190.039062 123.683594 C 189.671875 124.570312 189.179688 125.753906 188.6875 126.933594 C 188.625 127.082031 188.5625 127.230469 188.503906 127.378906 C 188.433594 127.523438 188.367188 127.667969 188.300781 127.8125 C 188.167969 128.101562 188.035156 128.386719 187.90625 128.660156 C 187.652344 129.210938 187.414062 129.722656 187.207031 130.164062 C 187 130.601562 186.832031 130.964844 186.710938 131.222656 C 186.648438 131.351562 186.601562 131.449219 186.570312 131.519531 C 186.535156 131.585938 186.515625 131.625 186.515625 131.625 " fill-opacity="1" fill-rule="nonzero"/><path fill="#993e25" d="M 171.660156 153.429688 L 174.808594 156.328125 C 174.808594 156.328125 174.929688 156.199219 175.144531 155.972656 C 175.246094 155.859375 175.378906 155.722656 175.523438 155.5625 C 175.664062 155.398438 175.824219 155.214844 176 155.015625 C 176.34375 154.613281 176.75 154.144531 177.183594 153.640625 C 177.398438 153.386719 177.621094 153.125 177.847656 152.863281 C 178.074219 152.597656 178.308594 152.328125 178.519531 152.050781 C 179.394531 150.945312 180.257812 149.832031 180.902344 149 C 181.214844 148.574219 181.464844 148.21875 181.644531 147.96875 C 181.820312 147.71875 181.921875 147.578125 181.921875 147.578125 L 178.445312 145.082031 C 178.445312 145.082031 178.347656 145.21875 178.179688 145.457031 C 178.007812 145.695312 177.769531 146.035156 177.472656 146.4375 C 176.855469 147.234375 176.03125 148.296875 175.199219 149.351562 C 174.996094 149.617188 174.773438 149.871094 174.558594 150.125 C 174.34375 150.375 174.128906 150.625 173.925781 150.867188 C 173.511719 151.34375 173.125 151.792969 172.796875 152.175781 C 172.628906 152.367188 172.476562 152.542969 172.34375 152.695312 C 172.207031 152.851562 172.078125 152.980469 171.980469 153.089844 C 171.777344 153.304688 171.660156 153.429688 171.660156 153.429688 " fill-opacity="1" fill-rule="nonzero"/><path fill="#993e25" d="M 153.320312 165.382812 C 153.417969 165.535156 153.6875 165.53125 153.925781 165.378906 C 154.160156 165.222656 154.273438 164.972656 154.175781 164.820312 C 154.074219 164.667969 153.804688 164.671875 153.570312 164.824219 C 153.335938 164.980469 153.226562 165.230469 153.320312 165.382812 " fill-opacity="1" fill-rule="nonzero"/><path fill="#993e25" d="M 150.527344 170.078125 L 152.617188 173.816406 C 152.617188 173.816406 152.769531 173.730469 153.042969 173.582031 C 153.316406 173.4375 153.695312 173.210938 154.152344 172.9375 C 154.609375 172.664062 155.140625 172.347656 155.710938 172.003906 C 155.992188 171.832031 156.289062 171.65625 156.585938 171.476562 C 156.886719 171.292969 157.179688 171.089844 157.476562 170.898438 C 158.070312 170.507812 158.664062 170.113281 159.222656 169.746094 C 159.5 169.5625 159.769531 169.382812 160.023438 169.210938 C 160.269531 169.03125 160.507812 168.863281 160.722656 168.707031 C 161.589844 168.078125 162.167969 167.660156 162.167969 167.660156 L 159.628906 164.214844 C 159.628906 164.214844 159.078125 164.613281 158.253906 165.214844 C 158.046875 165.363281 157.824219 165.523438 157.585938 165.695312 C 157.34375 165.855469 157.085938 166.027344 156.824219 166.203125 C 156.292969 166.550781 155.726562 166.925781 155.160156 167.296875 C 154.878906 167.480469 154.597656 167.675781 154.3125 167.847656 C 154.027344 168.019531 153.75 168.1875 153.476562 168.351562 C 152.933594 168.679688 152.425781 168.980469 151.992188 169.242188 C 151.558594 169.503906 151.195312 169.71875 150.933594 169.855469 C 150.675781 169.996094 150.527344 170.078125 150.527344 170.078125 " fill-opacity="1" fill-rule="nonzero"/><path fill="#993e25" d="M 126.0625 179.488281 L 127.058594 183.652344 C 127.058594 183.652344 127.710938 183.496094 128.6875 183.253906 C 128.933594 183.191406 129.199219 183.132812 129.476562 183.054688 C 129.757812 182.980469 130.054688 182.898438 130.359375 182.8125 C 130.972656 182.640625 131.625 182.457031 132.273438 182.277344 C 132.4375 182.230469 132.601562 182.183594 132.761719 182.140625 C 132.925781 182.089844 133.085938 182.039062 133.246094 181.988281 C 133.566406 181.886719 133.882812 181.789062 134.1875 181.691406 C 134.796875 181.5 135.367188 181.320312 135.855469 181.164062 C 136.097656 181.085938 136.320312 181.015625 136.519531 180.941406 C 136.714844 180.871094 136.886719 180.8125 137.03125 180.761719 C 137.3125 180.660156 137.476562 180.605469 137.476562 180.605469 L 136.0625 176.566406 C 136.0625 176.566406 135.90625 176.617188 135.636719 176.714844 C 135.5 176.761719 135.335938 176.820312 135.144531 176.886719 C 134.957031 176.957031 134.742188 177.027344 134.507812 177.101562 C 134.039062 177.25 133.496094 177.421875 132.910156 177.609375 C 132.617188 177.699219 132.316406 177.792969 132.007812 177.890625 C 131.855469 177.941406 131.699219 177.988281 131.542969 178.035156 C 131.390625 178.082031 131.230469 178.125 131.074219 178.167969 C 130.449219 178.34375 129.824219 178.515625 129.238281 178.679688 C 128.945312 178.761719 128.660156 178.839844 128.390625 178.914062 C 128.121094 178.992188 127.867188 179.046875 127.632812 179.105469 C 126.691406 179.335938 126.0625 179.488281 126.0625 179.488281 " fill-opacity="1" fill-rule="nonzero"/><g clip-path="url(#9bcd5c001e)"><path fill="#993e25" d="M 101.195312 182.644531 L 101.308594 186.921875 C 101.308594 186.921875 101.46875 186.921875 101.746094 186.914062 C 102.027344 186.902344 102.421875 186.902344 102.902344 186.878906 C 103.382812 186.855469 103.941406 186.828125 104.539062 186.800781 C 105.140625 186.769531 105.777344 186.746094 106.417969 186.695312 C 107.0625 186.648438 107.703125 186.605469 108.304688 186.5625 C 108.605469 186.539062 108.898438 186.515625 109.175781 186.496094 C 109.449219 186.46875 109.710938 186.441406 109.953125 186.421875 C 110.921875 186.328125 111.566406 186.265625 111.566406 186.265625 L 111.128906 182.007812 C 111.128906 182.007812 110.503906 182.066406 109.570312 182.15625 C 109.335938 182.179688 109.082031 182.207031 108.8125 182.230469 C 108.546875 182.25 108.265625 182.273438 107.972656 182.292969 C 107.390625 182.335938 106.769531 182.378906 106.148438 182.421875 C 105.523438 182.472656 104.90625 182.492188 104.324219 182.523438 C 103.746094 182.550781 103.203125 182.578125 102.738281 182.597656 C 102.273438 182.621094 101.886719 182.625 101.617188 182.632812 C 101.347656 182.640625 101.195312 182.644531 101.195312 182.644531 " fill-opacity="1" fill-rule="nonzero"/></g><path fill="#993e25" d="M 81.617188 179.257812 C 81.601562 179.4375 81.792969 179.605469 82.042969 179.632812 C 82.296875 179.660156 82.519531 179.53125 82.535156 179.351562 C 82.554688 179.171875 82.363281 179.007812 82.109375 178.980469 C 81.859375 178.953125 81.636719 179.078125 81.617188 179.257812 " fill-opacity="1" fill-rule="nonzero"/><path fill="#993e25" d="M 77.035156 181.355469 L 76.484375 185.601562 C 76.484375 185.601562 77.097656 185.675781 78.011719 185.789062 C 78.929688 185.910156 80.160156 186.03125 81.386719 186.164062 C 82.003906 186.226562 82.621094 186.28125 83.199219 186.332031 C 83.78125 186.382812 84.316406 186.4375 84.785156 186.46875 C 85.714844 186.539062 86.332031 186.582031 86.332031 186.582031 L 86.632812 182.316406 C 86.632812 182.316406 86.03125 182.269531 85.125 182.203125 C 84.671875 182.171875 84.148438 182.117188 83.582031 182.070312 C 83.019531 182.015625 82.414062 181.96875 81.816406 181.90625 C 80.617188 181.773438 79.417969 181.65625 78.523438 181.539062 C 77.628906 181.429688 77.035156 181.355469 77.035156 181.355469 " fill-opacity="1" fill-rule="nonzero"/><path fill="#993e25" d="M 53.632812 176.710938 L 52.515625 180.84375 C 52.515625 180.84375 52.664062 180.886719 52.929688 180.957031 C 53.191406 181.023438 53.5625 181.121094 54.011719 181.242188 C 54.910156 181.476562 56.105469 181.777344 57.300781 182.0625 C 57.898438 182.210938 58.496094 182.347656 59.058594 182.476562 C 59.617188 182.605469 60.140625 182.722656 60.589844 182.820312 C 61.488281 183.015625 62.085938 183.144531 62.085938 183.144531 L 62.972656 178.960938 C 62.972656 178.960938 60.632812 178.464844 58.300781 177.902344 C 57.132812 177.621094 55.96875 177.328125 55.09375 177.097656 C 54.65625 176.984375 54.289062 176.886719 54.035156 176.820312 C 53.78125 176.75 53.632812 176.710938 53.632812 176.710938 " fill-opacity="1" fill-rule="nonzero"/><path fill="#993e25" d="M 239.042969 27.308594 C 239.09375 27.484375 239.25 27.582031 239.386719 27.546875 C 239.523438 27.511719 239.597656 27.339844 239.550781 27.164062 C 239.5 26.988281 239.347656 26.878906 239.207031 26.917969 C 239.0625 26.953125 238.988281 27.140625 239.042969 27.308594 " fill-opacity="1" fill-rule="nonzero"/><path fill="#993e25" d="M 225.996094 34.910156 C 226.113281 35.042969 226.320312 35.058594 226.453125 34.941406 C 226.585938 34.828125 226.601562 34.625 226.484375 34.488281 C 226.367188 34.351562 226.160156 34.332031 226.023438 34.445312 C 225.890625 34.566406 225.875 34.773438 225.996094 34.910156 " fill-opacity="1" fill-rule="nonzero"/><path fill="#993e25" d="M 214.636719 48.230469 C 214.785156 48.332031 214.996094 48.277344 215.101562 48.113281 C 215.210938 47.945312 215.183594 47.734375 215.03125 47.632812 C 214.882812 47.535156 214.664062 47.578125 214.558594 47.746094 C 214.449219 47.914062 214.484375 48.132812 214.636719 48.230469 " fill-opacity="1" fill-rule="nonzero"/><path fill="#993e25" d="M 205.632812 64.949219 C 205.800781 65.023438 206.003906 64.925781 206.089844 64.738281 C 206.171875 64.546875 206.109375 64.332031 205.945312 64.257812 C 205.777344 64.183594 205.574219 64.277344 205.488281 64.46875 C 205.402344 64.660156 205.46875 64.875 205.632812 64.949219 " fill-opacity="1" fill-rule="nonzero"/><path fill="#993e25" d="M 198.738281 83.527344 C 198.910156 83.582031 199.105469 83.457031 199.171875 83.25 C 199.234375 83.046875 199.148438 82.835938 198.976562 82.78125 C 198.804688 82.726562 198.609375 82.847656 198.546875 83.054688 C 198.480469 83.261719 198.566406 83.472656 198.738281 83.527344 " fill-opacity="1" fill-rule="nonzero"/><path fill="#993e25" d="M 193.542969 103.148438 C 193.71875 103.1875 193.902344 103.042969 193.953125 102.832031 C 194 102.617188 193.898438 102.410156 193.722656 102.371094 C 193.546875 102.328125 193.363281 102.472656 193.3125 102.6875 C 193.265625 102.902344 193.367188 103.109375 193.542969 103.148438 " fill-opacity="1" fill-rule="nonzero"/><path fill="#993e25" d="M 186.105469 126.339844 C 186.269531 126.414062 186.488281 126.269531 186.59375 126.023438 C 186.695312 125.773438 186.644531 125.515625 186.480469 125.441406 C 186.3125 125.371094 186.09375 125.515625 185.992188 125.761719 C 185.890625 126.007812 185.941406 126.265625 186.105469 126.339844 " fill-opacity="1" fill-rule="nonzero"/><path fill="#993e25" d="M 172.855469 148.097656 C 172.925781 148.15625 173.023438 148.164062 173.128906 148.128906 C 173.234375 148.097656 173.339844 148.019531 173.425781 147.910156 C 173.601562 147.6875 173.625 147.417969 173.484375 147.304688 C 173.34375 147.191406 173.089844 147.277344 172.917969 147.496094 C 172.832031 147.605469 172.78125 147.726562 172.773438 147.835938 C 172.757812 147.945312 172.785156 148.039062 172.855469 148.097656 " fill-opacity="1" fill-rule="nonzero"/><path fill="#993e25" d="M 129.871094 175.792969 C 129.917969 175.96875 130.175781 176.046875 130.4375 175.976562 C 130.699219 175.902344 130.871094 175.699219 130.820312 175.527344 C 130.765625 175.355469 130.511719 175.273438 130.253906 175.34375 C 129.992188 175.417969 129.820312 175.621094 129.871094 175.792969 " fill-opacity="1" fill-rule="nonzero"/><path fill="#993e25" d="M 105.507812 179.851562 C 105.515625 180.03125 105.738281 180.164062 106 180.144531 C 106.261719 180.125 106.464844 179.964844 106.453125 179.785156 C 106.441406 179.601562 106.21875 179.472656 105.960938 179.488281 C 105.699219 179.507812 105.496094 179.667969 105.507812 179.851562 " fill-opacity="1" fill-rule="nonzero"/><path fill="#993e25" d="M 58.464844 175.253906 C 58.421875 175.429688 58.589844 175.621094 58.835938 175.679688 C 59.082031 175.738281 59.316406 175.644531 59.359375 175.46875 C 59.398438 175.292969 59.234375 175.101562 58.988281 175.042969 C 58.742188 174.984375 58.507812 175.078125 58.464844 175.253906 " fill-opacity="1" fill-rule="nonzero"/><path fill="#993e25" d="M 198.234375 10.96875 L 201.234375 14.023438 C 201.234375 14.023438 201.355469 13.90625 201.566406 13.699219 C 201.769531 13.488281 202.085938 13.199219 202.453125 12.851562 C 202.828125 12.503906 203.253906 12.089844 203.734375 11.664062 C 204.214844 11.238281 204.726562 10.785156 205.238281 10.328125 C 205.769531 9.882812 206.296875 9.441406 206.796875 9.023438 C 207.296875 8.609375 207.78125 8.238281 208.191406 7.914062 C 208.398438 7.75 208.585938 7.601562 208.753906 7.46875 C 208.921875 7.34375 209.074219 7.230469 209.195312 7.136719 C 209.441406 6.953125 209.585938 6.851562 209.585938 6.851562 L 207.027344 3.417969 C 207.027344 3.417969 206.878906 3.527344 206.617188 3.722656 C 206.488281 3.820312 206.332031 3.9375 206.148438 4.074219 C 205.972656 4.210938 205.773438 4.367188 205.554688 4.539062 C 205.125 4.878906 204.609375 5.277344 204.085938 5.710938 C 203.5625 6.148438 203.003906 6.617188 202.445312 7.085938 C 201.902344 7.566406 201.363281 8.042969 200.859375 8.492188 C 200.355469 8.941406 199.910156 9.371094 199.515625 9.738281 C 199.128906 10.105469 198.796875 10.410156 198.582031 10.628906 C 198.363281 10.84375 198.234375 10.96875 198.234375 10.96875 " fill-opacity="1" fill-rule="nonzero"/><path fill="#993e25" d="M 181.742188 32.042969 L 185.394531 34.277344 C 185.394531 34.277344 185.722656 33.746094 186.21875 32.949219 C 186.339844 32.75 186.476562 32.535156 186.617188 32.308594 C 186.765625 32.078125 186.921875 31.839844 187.082031 31.59375 C 187.40625 31.097656 187.753906 30.574219 188.097656 30.042969 C 188.449219 29.519531 188.8125 28.996094 189.148438 28.507812 C 189.492188 28.019531 189.796875 27.558594 190.085938 27.167969 C 190.648438 26.394531 191.027344 25.875 191.027344 25.875 L 187.578125 23.339844 C 187.578125 23.339844 187.1875 23.878906 186.601562 24.683594 C 186.300781 25.085938 185.984375 25.5625 185.632812 26.070312 C 185.28125 26.578125 184.902344 27.121094 184.539062 27.664062 C 184.183594 28.210938 183.824219 28.757812 183.492188 29.269531 C 183.324219 29.523438 183.164062 29.773438 183.007812 30.007812 C 182.863281 30.242188 182.722656 30.464844 182.59375 30.671875 C 182.082031 31.496094 181.742188 32.042969 181.742188 32.042969 " fill-opacity="1" fill-rule="nonzero"/><path fill="#993e25" d="M 170.558594 54.277344 L 174.511719 55.914062 C 174.511719 55.914062 174.746094 55.363281 175.09375 54.539062 C 175.269531 54.128906 175.472656 53.648438 175.691406 53.132812 C 175.746094 53.003906 175.800781 52.871094 175.859375 52.738281 C 175.917969 52.605469 175.976562 52.472656 176.039062 52.335938 C 176.160156 52.066406 176.28125 51.792969 176.40625 51.519531 C 176.894531 50.421875 177.382812 49.328125 177.777344 48.507812 C 178.167969 47.6875 178.425781 47.144531 178.425781 47.144531 L 174.566406 45.289062 C 174.566406 45.289062 174.300781 45.851562 173.902344 46.691406 C 173.496094 47.53125 172.996094 48.65625 172.492188 49.777344 C 172.367188 50.058594 172.242188 50.339844 172.117188 50.617188 C 172.058594 50.753906 171.996094 50.894531 171.933594 51.027344 C 171.878906 51.164062 171.820312 51.296875 171.765625 51.429688 C 171.539062 51.957031 171.332031 52.449219 171.152344 52.871094 C 170.796875 53.714844 170.558594 54.277344 170.558594 54.277344 " fill-opacity="1" fill-rule="nonzero"/><path fill="#993e25" d="M 162.710938 76.769531 L 166.816406 77.972656 C 166.816406 77.972656 166.984375 77.417969 167.230469 76.582031 C 167.480469 75.75 167.804688 74.636719 168.167969 73.527344 C 168.519531 72.417969 168.867188 71.304688 169.140625 70.472656 C 169.421875 69.640625 169.609375 69.089844 169.609375 69.089844 L 165.550781 67.726562 C 165.550781 67.726562 165.359375 68.289062 165.074219 69.140625 C 164.796875 69.988281 164.441406 71.117188 164.082031 72.246094 C 163.714844 73.378906 163.386719 74.507812 163.132812 75.355469 C 162.878906 76.203125 162.710938 76.769531 162.710938 76.769531 " fill-opacity="1" fill-rule="nonzero"/><path fill="#993e25" d="M 157.199219 98.429688 L 161.351562 99.472656 C 161.351562 99.472656 161.457031 99.023438 161.621094 98.347656 C 161.703125 98.007812 161.796875 97.613281 161.902344 97.191406 C 161.953125 96.976562 162.007812 96.75 162.0625 96.523438 C 162.125 96.25 162.1875 95.96875 162.253906 95.691406 C 162.507812 94.578125 162.765625 93.464844 162.957031 92.628906 C 163.054688 92.210938 163.132812 91.863281 163.195312 91.617188 C 163.253906 91.375 163.289062 91.234375 163.289062 91.234375 L 159.128906 90.234375 C 159.128906 90.234375 159.09375 90.375 159.03125 90.621094 C 158.96875 90.871094 158.886719 91.222656 158.792969 91.644531 C 158.597656 92.492188 158.335938 93.621094 158.078125 94.75 C 158.011719 95.035156 157.949219 95.316406 157.882812 95.59375 C 157.832031 95.8125 157.777344 96.03125 157.726562 96.238281 C 157.628906 96.644531 157.539062 97.023438 157.457031 97.347656 C 157.304688 97.996094 157.199219 98.429688 157.199219 98.429688 " fill-opacity="1" fill-rule="nonzero"/><path fill="#993e25" d="M 151.507812 114.304688 L 155.34375 116.203125 C 155.34375 116.203125 155.355469 116.179688 155.378906 116.136719 C 155.402344 116.089844 155.433594 116.023438 155.472656 115.9375 C 155.550781 115.761719 155.664062 115.515625 155.800781 115.222656 C 155.941406 114.925781 156.101562 114.582031 156.273438 114.214844 C 156.359375 114.03125 156.449219 113.839844 156.539062 113.648438 C 156.585938 113.550781 156.628906 113.453125 156.675781 113.355469 C 156.71875 113.253906 156.757812 113.152344 156.800781 113.050781 C 157.140625 112.238281 157.476562 111.425781 157.730469 110.816406 C 157.792969 110.664062 157.851562 110.523438 157.902344 110.402344 C 157.949219 110.273438 157.992188 110.164062 158.023438 110.070312 C 158.089844 109.886719 158.128906 109.78125 158.128906 109.78125 L 154.132812 108.253906 C 154.132812 108.253906 154.09375 108.355469 154.03125 108.527344 C 154 108.613281 153.960938 108.71875 153.917969 108.839844 C 153.871094 108.957031 153.8125 109.089844 153.753906 109.234375 C 153.511719 109.808594 153.191406 110.574219 152.878906 111.339844 C 152.839844 111.4375 152.800781 111.535156 152.757812 111.628906 C 152.714844 111.722656 152.671875 111.8125 152.628906 111.902344 C 152.542969 112.085938 152.460938 112.261719 152.378906 112.4375 C 152.21875 112.78125 152.066406 113.105469 151.9375 113.382812 C 151.808594 113.660156 151.703125 113.890625 151.628906 114.054688 C 151.589844 114.136719 151.5625 114.199219 151.542969 114.242188 C 151.519531 114.285156 151.507812 114.304688 151.507812 114.304688 " fill-opacity="1" fill-rule="nonzero"/><path fill="#993e25" d="M 142.941406 126.957031 L 146.089844 129.855469 C 146.089844 129.855469 146.160156 129.785156 146.28125 129.65625 C 146.339844 129.59375 146.417969 129.519531 146.5 129.425781 C 146.578125 129.332031 146.667969 129.226562 146.765625 129.109375 C 146.964844 128.878906 147.195312 128.609375 147.445312 128.320312 C 147.566406 128.175781 147.695312 128.027344 147.828125 127.878906 C 147.957031 127.726562 148.09375 127.578125 148.214844 127.410156 C 148.714844 126.765625 149.21875 126.121094 149.601562 125.640625 C 149.957031 125.136719 150.195312 124.800781 150.195312 124.800781 L 146.71875 122.304688 C 146.71875 122.304688 146.5 122.613281 146.167969 123.082031 C 145.816406 123.523438 145.351562 124.113281 144.894531 124.710938 C 144.78125 124.863281 144.65625 125.003906 144.535156 125.140625 C 144.417969 125.277344 144.296875 125.414062 144.183594 125.546875 C 143.957031 125.8125 143.746094 126.058594 143.5625 126.269531 C 143.472656 126.378906 143.390625 126.476562 143.316406 126.5625 C 143.242188 126.648438 143.171875 126.714844 143.117188 126.773438 C 143.007812 126.890625 142.941406 126.957031 142.941406 126.957031 " fill-opacity="1" fill-rule="nonzero"/><path fill="#993e25" d="M 137.484375 140.429688 C 137.578125 140.585938 137.78125 140.625 137.933594 140.523438 C 138.085938 140.421875 138.128906 140.21875 138.03125 140.066406 C 137.929688 139.914062 137.730469 139.875 137.578125 139.972656 C 137.429688 140.074219 137.386719 140.277344 137.484375 140.429688 " fill-opacity="1" fill-rule="nonzero"/><path fill="#993e25" d="M 131.480469 135.980469 L 133.566406 139.71875 C 133.566406 139.71875 133.65625 139.667969 133.8125 139.585938 C 133.976562 139.503906 134.1875 139.371094 134.449219 139.214844 C 134.707031 139.058594 135.011719 138.875 135.335938 138.679688 C 135.5 138.582031 135.667969 138.484375 135.839844 138.382812 C 136.011719 138.28125 136.175781 138.160156 136.34375 138.050781 C 136.679688 137.832031 137.015625 137.609375 137.328125 137.402344 C 137.488281 137.296875 137.640625 137.199219 137.785156 137.101562 C 137.925781 137 138.054688 136.90625 138.175781 136.816406 C 138.664062 136.460938 138.988281 136.226562 138.988281 136.226562 L 136.445312 132.78125 C 136.445312 132.78125 136.148438 132.996094 135.707031 133.320312 C 135.59375 133.402344 135.476562 133.492188 135.347656 133.585938 C 135.214844 133.671875 135.074219 133.761719 134.929688 133.855469 C 134.640625 134.046875 134.335938 134.25 134.027344 134.453125 C 133.871094 134.554688 133.722656 134.664062 133.566406 134.753906 C 133.410156 134.847656 133.253906 134.941406 133.105469 135.027344 C 132.808594 135.207031 132.527344 135.375 132.289062 135.519531 C 132.050781 135.664062 131.855469 135.785156 131.707031 135.859375 C 131.5625 135.9375 131.480469 135.980469 131.480469 135.980469 " fill-opacity="1" fill-rule="nonzero"/><path fill="#993e25" d="M 116.996094 141.5 L 117.988281 145.664062 C 117.988281 145.664062 118.414062 145.5625 119.046875 145.40625 C 119.203125 145.367188 119.378906 145.332031 119.554688 145.28125 C 119.734375 145.230469 119.921875 145.175781 120.117188 145.121094 C 120.503906 145.011719 120.917969 144.898438 121.332031 144.78125 C 121.4375 144.753906 121.539062 144.726562 121.644531 144.699219 C 121.746094 144.664062 121.84375 144.632812 121.945312 144.601562 C 122.144531 144.539062 122.34375 144.476562 122.53125 144.414062 C 122.914062 144.292969 123.269531 144.183594 123.574219 144.085938 C 123.726562 144.039062 123.867188 143.996094 123.984375 143.949219 C 124.105469 143.90625 124.210938 143.867188 124.300781 143.835938 C 124.472656 143.773438 124.570312 143.738281 124.570312 143.738281 L 123.160156 139.699219 C 123.160156 139.699219 123.066406 139.730469 122.902344 139.789062 C 122.824219 139.820312 122.722656 139.855469 122.613281 139.894531 C 122.5 139.9375 122.371094 139.980469 122.226562 140.023438 C 121.941406 140.113281 121.609375 140.21875 121.253906 140.328125 C 121.078125 140.386719 120.894531 140.445312 120.707031 140.503906 C 120.613281 140.535156 120.519531 140.5625 120.425781 140.59375 C 120.328125 140.621094 120.230469 140.648438 120.132812 140.675781 C 119.746094 140.78125 119.355469 140.890625 118.992188 140.992188 C 118.808594 141.042969 118.636719 141.09375 118.46875 141.140625 C 118.300781 141.1875 118.136719 141.21875 117.988281 141.257812 C 117.394531 141.402344 116.996094 141.5 116.996094 141.5 " fill-opacity="1" fill-rule="nonzero"/><path fill="#993e25" d="M 100.132812 143.601562 L 100.25 147.878906 C 100.25 147.878906 100.363281 147.878906 100.566406 147.871094 C 100.769531 147.867188 101.0625 147.867188 101.40625 147.847656 C 101.75 147.832031 102.152344 147.8125 102.582031 147.789062 C 103.011719 147.769531 103.476562 147.753906 103.929688 147.714844 C 104.386719 147.683594 104.839844 147.652344 105.269531 147.621094 C 105.480469 147.605469 105.6875 147.589844 105.882812 147.574219 C 106.078125 147.558594 106.261719 147.539062 106.429688 147.523438 C 107.109375 147.457031 107.558594 147.414062 107.558594 147.414062 L 107.121094 143.15625 C 107.121094 143.15625 106.691406 143.195312 106.042969 143.257812 C 105.882812 143.277344 105.707031 143.292969 105.523438 143.3125 C 105.335938 143.324219 105.140625 143.339844 104.9375 143.351562 C 104.527344 143.382812 104.09375 143.414062 103.65625 143.445312 C 103.222656 143.484375 102.78125 143.492188 102.367188 143.515625 C 101.957031 143.535156 101.570312 143.554688 101.242188 143.570312 C 100.914062 143.589844 100.632812 143.585938 100.4375 143.59375 C 100.246094 143.597656 100.132812 143.601562 100.132812 143.601562 " fill-opacity="1" fill-rule="nonzero"/><path fill="#993e25" d="M 84.65625 149.859375 C 84.636719 150.039062 84.789062 150.203125 85 150.226562 C 85.207031 150.25 85.390625 150.117188 85.40625 149.9375 C 85.425781 149.757812 85.269531 149.597656 85.0625 149.574219 C 84.855469 149.554688 84.671875 149.679688 84.65625 149.859375 " fill-opacity="1" fill-rule="nonzero"/><path fill="#993e25" d="M 82.039062 142.621094 L 81.492188 146.867188 C 81.492188 146.867188 81.964844 146.921875 82.679688 147.011719 C 83.394531 147.105469 84.34375 147.195312 85.292969 147.300781 C 85.765625 147.351562 86.242188 147.390625 86.6875 147.429688 C 87.128906 147.46875 87.546875 147.515625 87.902344 147.539062 C 88.609375 147.589844 89.085938 147.625 89.085938 147.625 L 89.386719 143.355469 C 89.386719 143.355469 88.929688 143.320312 88.242188 143.269531 C 87.898438 143.25 87.496094 143.203125 87.066406 143.167969 C 86.636719 143.128906 86.179688 143.089844 85.71875 143.042969 C 84.800781 142.941406 83.882812 142.855469 83.191406 142.761719 C 82.5 142.675781 82.039062 142.621094 82.039062 142.621094 " fill-opacity="1" fill-rule="nonzero"/><path fill="#993e25" d="M 63.835938 139.011719 L 62.71875 143.140625 C 62.71875 143.140625 62.832031 143.171875 63.03125 143.226562 C 63.234375 143.28125 63.523438 143.355469 63.867188 143.445312 C 64.558594 143.628906 65.488281 143.863281 66.421875 144.085938 C 66.890625 144.199219 67.359375 144.308594 67.800781 144.410156 C 68.238281 144.511719 68.648438 144.605469 69.003906 144.679688 C 69.710938 144.832031 70.179688 144.9375 70.179688 144.9375 L 71.066406 140.75 C 71.066406 140.75 70.609375 140.648438 69.925781 140.5 C 69.582031 140.425781 69.183594 140.335938 68.757812 140.238281 C 68.332031 140.140625 67.875 140.035156 67.421875 139.925781 C 66.515625 139.707031 65.617188 139.480469 64.949219 139.304688 C 64.613281 139.21875 64.335938 139.144531 64.140625 139.09375 C 63.945312 139.039062 63.835938 139.011719 63.835938 139.011719 " fill-opacity="1" fill-rule="nonzero"/><path fill="#993e25" d="M 206.558594 12.648438 C 206.675781 12.785156 206.945312 12.742188 207.160156 12.554688 C 207.375 12.371094 207.460938 12.109375 207.339844 11.972656 C 207.226562 11.835938 206.949219 11.871094 206.730469 12.058594 C 206.515625 12.246094 206.4375 12.511719 206.558594 12.648438 " fill-opacity="1" fill-rule="nonzero"/><path fill="#993e25" d="M 190.003906 31.898438 C 190.15625 31.996094 190.394531 31.898438 190.539062 31.679688 C 190.683594 31.457031 190.6875 31.199219 190.539062 31.097656 C 190.390625 31 190.140625 31.09375 189.996094 31.316406 C 189.851562 31.535156 189.855469 31.796875 190.003906 31.898438 " fill-opacity="1" fill-rule="nonzero"/><path fill="#993e25" d="M 178.601562 53 C 178.769531 53.074219 178.988281 52.945312 179.089844 52.714844 C 179.195312 52.484375 179.144531 52.238281 178.980469 52.164062 C 178.8125 52.089844 178.59375 52.21875 178.492188 52.449219 C 178.386719 52.679688 178.4375 52.929688 178.601562 53 " fill-opacity="1" fill-rule="nonzero"/><path fill="#993e25" d="M 170.523438 74.734375 C 170.695312 74.789062 170.898438 74.640625 170.972656 74.40625 C 171.046875 74.171875 170.96875 73.9375 170.792969 73.882812 C 170.621094 73.828125 170.421875 73.976562 170.347656 74.210938 C 170.273438 74.445312 170.351562 74.683594 170.523438 74.734375 " fill-opacity="1" fill-rule="nonzero"/><path fill="#993e25" d="M 164.703125 96.695312 C 164.878906 96.734375 165.066406 96.574219 165.121094 96.335938 C 165.175781 96.101562 165.078125 95.875 164.902344 95.835938 C 164.722656 95.796875 164.535156 95.957031 164.480469 96.195312 C 164.425781 96.429688 164.527344 96.65625 164.703125 96.695312 " fill-opacity="1" fill-rule="nonzero"/><path fill="#993e25" d="M 159.0625 114.421875 C 159.226562 114.492188 159.421875 114.40625 159.496094 114.222656 C 159.570312 114.042969 159.496094 113.835938 159.332031 113.765625 C 159.164062 113.695312 158.96875 113.785156 158.894531 113.960938 C 158.820312 114.140625 158.898438 114.347656 159.0625 114.421875 " fill-opacity="1" fill-rule="nonzero"/><path fill="#993e25" d="M 150.035156 129.320312 C 150.105469 129.375 150.191406 129.402344 150.277344 129.390625 C 150.359375 129.382812 150.4375 129.339844 150.496094 129.265625 C 150.609375 129.121094 150.585938 128.910156 150.445312 128.796875 C 150.304688 128.683594 150.097656 128.707031 149.988281 128.851562 C 149.929688 128.925781 149.910156 129.011719 149.917969 129.097656 C 149.925781 129.183594 149.964844 129.261719 150.035156 129.320312 " fill-opacity="1" fill-rule="nonzero"/><path fill="#993e25" d="M 121.730469 147.382812 C 121.78125 147.558594 121.96875 147.65625 122.15625 147.605469 C 122.34375 147.554688 122.453125 147.371094 122.398438 147.199219 C 122.347656 147.023438 122.15625 146.925781 121.972656 146.976562 C 121.789062 147.027344 121.679688 147.210938 121.730469 147.382812 " fill-opacity="1" fill-rule="nonzero"/><path fill="#993e25" d="M 103.730469 150.351562 C 103.742188 150.53125 103.914062 150.664062 104.117188 150.652344 C 104.320312 150.636719 104.472656 150.476562 104.460938 150.296875 C 104.449219 150.117188 104.273438 149.980469 104.074219 149.996094 C 103.875 150.011719 103.722656 150.171875 103.730469 150.351562 " fill-opacity="1" fill-rule="nonzero"/><path fill="#993e25" d="M 65.445312 146.535156 C 65.402344 146.710938 65.53125 146.894531 65.738281 146.945312 C 65.941406 146.992188 66.140625 146.890625 66.183594 146.714844 C 66.226562 146.539062 66.09375 146.355469 65.890625 146.308594 C 65.6875 146.257812 65.488281 146.359375 65.445312 146.535156 " fill-opacity="1" fill-rule="nonzero"/><g clip-path="url(#d57d0fabdc)"><path fill="#993e25" d="M 66.066406 145.582031 C 65.398438 145.421875 64.746094 145.753906 64.601562 146.328125 C 64.53125 146.617188 64.601562 146.914062 64.773438 147.15625 C 64.949219 147.398438 65.226562 147.589844 65.5625 147.671875 C 66.238281 147.835938 66.898438 147.488281 67.03125 146.914062 C 67.164062 146.332031 66.726562 145.746094 66.066406 145.582031 Z M 85.136719 148.832031 C 84.460938 148.757812 83.863281 149.179688 83.796875 149.769531 C 83.730469 150.359375 84.234375 150.894531 84.921875 150.96875 C 85.613281 151.039062 86.210938 150.605469 86.265625 150.015625 C 86.316406 149.421875 85.8125 148.898438 85.136719 148.832031 Z M 104.027344 149.25 C 103.863281 149.261719 103.710938 149.304688 103.574219 149.367188 C 103.433594 149.429688 103.308594 149.511719 103.207031 149.617188 C 103 149.820312 102.882812 150.09375 102.898438 150.390625 C 102.910156 150.6875 103.0625 150.949219 103.289062 151.132812 C 103.40625 151.226562 103.539062 151.296875 103.6875 151.347656 C 103.835938 151.390625 103.996094 151.40625 104.164062 151.398438 C 104.832031 151.347656 105.335938 150.828125 105.289062 150.238281 C 105.242188 149.644531 104.679688 149.203125 104.027344 149.25 Z M 121.761719 146.257812 C 121.167969 146.421875 120.8125 147.023438 120.964844 147.597656 C 121.121094 148.167969 121.75 148.492188 122.367188 148.320312 C 122.675781 148.242188 122.914062 148.035156 123.054688 147.789062 C 123.195312 147.539062 123.234375 147.242188 123.148438 146.960938 C 123.058594 146.675781 122.859375 146.457031 122.609375 146.332031 C 122.363281 146.207031 122.066406 146.179688 121.761719 146.257812 Z M 137.175781 139.34375 C 136.699219 139.675781 136.527344 140.316406 136.839844 140.824219 C 137.148438 141.328125 137.835938 141.5 138.335938 141.152344 C 138.847656 140.816406 138.988281 140.144531 138.65625 139.652344 C 138.324219 139.164062 137.660156 139.023438 137.175781 139.34375 Z M 149.40625 128.382812 C 149.363281 128.441406 149.324219 128.503906 149.292969 128.566406 C 149.261719 128.628906 149.230469 128.691406 149.210938 128.757812 C 149.167969 128.886719 149.152344 129.027344 149.164062 129.160156 C 149.1875 129.433594 149.3125 129.699219 149.539062 129.890625 C 149.765625 130.082031 150.050781 130.164062 150.332031 130.136719 C 150.472656 130.125 150.609375 130.085938 150.738281 130.019531 C 150.800781 129.984375 150.867188 129.949219 150.921875 129.902344 C 150.976562 129.851562 151.027344 129.796875 151.074219 129.738281 C 151.453125 129.25 151.382812 128.5625 150.914062 128.199219 C 150.441406 127.832031 149.769531 127.914062 149.40625 128.382812 Z M 158.210938 113.664062 C 158.097656 113.960938 158.082031 114.261719 158.171875 114.527344 C 158.261719 114.792969 158.453125 115.019531 158.722656 115.140625 C 158.992188 115.265625 159.292969 115.257812 159.558594 115.148438 C 159.824219 115.039062 160.0625 114.828125 160.183594 114.523438 C 160.429688 113.921875 160.1875 113.25 159.640625 113.019531 C 159.09375 112.792969 158.453125 113.082031 158.210938 113.664062 Z M 163.753906 96.03125 C 163.707031 96.226562 163.695312 96.417969 163.707031 96.597656 C 163.714844 96.6875 163.730469 96.777344 163.75 96.859375 C 163.761719 96.902344 163.773438 96.941406 163.785156 96.980469 C 163.800781 97.019531 163.816406 97.050781 163.832031 97.082031 C 163.972656 97.335938 164.203125 97.527344 164.492188 97.59375 C 164.78125 97.660156 165.074219 97.585938 165.316406 97.414062 C 165.347656 97.390625 165.375 97.371094 165.40625 97.339844 C 165.433594 97.3125 165.464844 97.28125 165.492188 97.246094 C 165.546875 97.179688 165.597656 97.109375 165.640625 97.03125 C 165.734375 96.875 165.804688 96.695312 165.851562 96.5 C 166.027344 95.726562 165.703125 94.988281 165.125 94.855469 C 164.546875 94.722656 163.933594 95.25 163.753906 96.03125 Z M 169.632812 73.988281 C 169.386719 74.765625 169.648438 75.535156 170.21875 75.710938 C 170.785156 75.882812 171.441406 75.398438 171.683594 74.632812 C 171.929688 73.863281 171.667969 73.089844 171.105469 72.910156 C 170.539062 72.726562 169.878906 73.210938 169.632812 73.988281 Z M 177.808594 52.144531 C 177.464844 52.910156 177.628906 53.722656 178.179688 53.960938 C 178.71875 54.195312 179.433594 53.773438 179.773438 53.019531 C 180.109375 52.265625 179.949219 51.453125 179.40625 51.207031 C 178.867188 50.957031 178.152344 51.378906 177.808594 52.144531 Z M 189.375 30.898438 C 188.894531 31.632812 188.910156 32.492188 189.40625 32.8125 C 189.90625 33.136719 190.691406 32.8125 191.160156 32.09375 C 191.644531 31.378906 191.652344 30.53125 191.160156 30.191406 C 190.675781 29.855469 189.867188 30.167969 189.375 30.898438 Z M 206.242188 11.492188 C 205.53125 12.121094 205.277344 12.988281 205.675781 13.429688 C 206.074219 13.867188 206.957031 13.730469 207.644531 13.121094 C 208.351562 12.523438 208.625 11.671875 208.25 11.210938 C 207.875 10.753906 206.972656 10.875 206.242188 11.492188 Z M 230.804688 -2.191406 C 229.785156 -1.894531 229.117188 -1.175781 229.308594 -0.609375 C 229.398438 -0.328125 229.679688 -0.140625 230.058594 -0.0507812 C 230.4375 0.0390625 230.910156 0.0117188 231.402344 -0.128906 C 231.894531 -0.265625 232.304688 -0.507812 232.585938 -0.78125 C 232.863281 -1.054688 233.003906 -1.363281 232.933594 -1.652344 C 232.859375 -1.941406 232.585938 -2.148438 232.199219 -2.25 C 231.8125 -2.351562 231.316406 -2.335938 230.804688 -2.191406 Z M 248.816406 -4.738281 L 248.28125 -1.046875 C 248.28125 -1.046875 248.207031 -1.054688 248.066406 -1.074219 C 247.996094 -1.082031 247.90625 -1.09375 247.800781 -1.109375 C 247.730469 -1.117188 247.648438 -1.125 247.554688 -1.136719 C 247.476562 -1.144531 247.386719 -1.152344 247.292969 -1.160156 C 247.207031 -1.167969 247.113281 -1.175781 247.011719 -1.1875 C 246.917969 -1.191406 246.8125 -1.199219 246.703125 -1.210938 C 246.59375 -1.214844 246.480469 -1.222656 246.359375 -1.230469 C 245.429688 -1.285156 244.195312 -1.3125 242.691406 -1.246094 C 241.191406 -1.171875 239.40625 -1.015625 237.398438 -0.679688 C 235.386719 -0.347656 233.136719 0.152344 230.722656 0.902344 C 228.304688 1.640625 225.722656 2.628906 223.054688 3.898438 C 222.714844 4.050781 222.386719 4.21875 222.050781 4.386719 C 221.714844 4.558594 221.375 4.726562 221.039062 4.902344 C 220.703125 5.082031 220.363281 5.261719 220.023438 5.449219 C 219.855469 5.539062 219.683594 5.632812 219.511719 5.726562 C 219.34375 5.824219 219.171875 5.917969 219.003906 6.015625 C 218.664062 6.214844 218.320312 6.410156 217.976562 6.613281 C 217.636719 6.820312 217.296875 7.027344 216.953125 7.242188 C 216.78125 7.34375 216.609375 7.453125 216.4375 7.558594 C 216.261719 7.667969 216.09375 7.78125 215.921875 7.890625 C 215.582031 8.117188 215.238281 8.339844 214.894531 8.570312 C 212.148438 10.417969 209.421875 12.5625 206.753906 14.96875 C 204.085938 17.375 201.511719 20.058594 199.03125 22.964844 C 196.558594 25.867188 194.195312 29 191.960938 32.320312 C 189.726562 35.640625 187.628906 39.144531 185.652344 42.800781 C 181.699219 50.113281 178.289062 58.019531 175.324219 66.273438 C 173.84375 70.398438 172.464844 74.617188 171.214844 78.898438 C 170.886719 79.96875 170.589844 81.042969 170.289062 82.121094 C 169.988281 83.199219 169.675781 84.28125 169.398438 85.367188 C 169.113281 86.453125 168.828125 87.542969 168.542969 88.632812 C 168.273438 89.726562 168.003906 90.820312 167.734375 91.917969 C 167.457031 93.011719 167.210938 94.113281 166.957031 95.214844 C 166.828125 95.765625 166.703125 96.320312 166.578125 96.871094 L 166.386719 97.683594 L 166.214844 98.390625 C 165.988281 99.339844 165.761719 100.285156 165.53125 101.234375 C 165.480469 101.472656 165.410156 101.707031 165.34375 101.9375 L 165.148438 102.636719 C 165.015625 103.101562 164.886719 103.570312 164.753906 104.035156 L 164.558594 104.738281 C 164.492188 104.96875 164.433594 105.207031 164.355469 105.433594 L 163.910156 106.804688 L 163.464844 108.179688 C 163.390625 108.40625 163.324219 108.640625 163.238281 108.863281 L 162.992188 109.535156 L 162.496094 110.878906 L 162.25 111.550781 C 162.164062 111.773438 162.09375 112.003906 161.996094 112.21875 L 160.90625 114.835938 C 159.390625 118.285156 157.664062 121.578125 155.707031 124.640625 C 153.75 127.703125 151.570312 130.539062 149.179688 133.105469 C 146.789062 135.671875 144.195312 137.96875 141.429688 139.984375 C 138.664062 142.003906 135.730469 143.746094 132.683594 145.21875 C 126.589844 148.171875 120.058594 150.046875 113.597656 151.121094 C 107.136719 152.203125 100.757812 152.5 94.824219 152.371094 C 88.886719 152.242188 83.382812 151.683594 78.527344 150.976562 C 73.664062 150.261719 69.445312 149.394531 66.011719 148.59375 C 62.582031 147.78125 59.925781 147.03125 58.1875 146.503906 C 57.316406 146.238281 56.664062 146.03125 56.261719 145.894531 C 56.074219 145.832031 55.929688 145.785156 55.835938 145.753906 C 55.734375 145.71875 55.777344 145.734375 55.769531 145.730469 L 57.019531 142.214844 C 57.019531 142.214844 57.015625 142.214844 57.003906 142.210938 C 57 142.207031 56.996094 142.207031 56.992188 142.207031 C 56.996094 142.207031 57.003906 142.210938 57.007812 142.210938 C 57.019531 142.214844 57.035156 142.222656 57.050781 142.226562 C 57.136719 142.253906 57.265625 142.296875 57.433594 142.355469 C 57.808594 142.480469 58.429688 142.679688 59.269531 142.933594 C 60.941406 143.441406 63.523438 144.167969 66.867188 144.960938 C 70.214844 145.746094 74.332031 146.589844 79.066406 147.285156 C 83.800781 147.972656 89.15625 148.515625 94.90625 148.640625 C 100.652344 148.769531 106.804688 148.476562 112.984375 147.441406 C 119.160156 146.414062 125.347656 144.628906 131.058594 141.863281 C 136.777344 139.097656 141.996094 135.355469 146.449219 130.5625 C 148.679688 128.167969 150.722656 125.515625 152.5625 122.628906 C 154.40625 119.746094 156.042969 116.632812 157.488281 113.347656 L 158.527344 110.851562 C 158.617188 110.644531 158.6875 110.425781 158.769531 110.210938 L 159.003906 109.566406 L 159.476562 108.28125 L 159.714844 107.640625 C 159.796875 107.425781 159.859375 107.203125 159.933594 106.984375 L 160.355469 105.664062 L 160.785156 104.347656 C 160.863281 104.128906 160.917969 103.902344 160.980469 103.675781 L 161.171875 103 C 161.296875 102.550781 161.421875 102.101562 161.550781 101.652344 L 161.738281 100.980469 C 161.800781 100.757812 161.871094 100.535156 161.921875 100.300781 C 162.140625 99.386719 162.359375 98.46875 162.582031 97.554688 L 162.746094 96.871094 L 162.9375 96.054688 C 163.066406 95.496094 163.195312 94.9375 163.320312 94.378906 C 163.582031 93.261719 163.828125 92.148438 164.105469 91.039062 C 164.382812 89.929688 164.652344 88.820312 164.925781 87.714844 C 165.214844 86.609375 165.503906 85.503906 165.792969 84.40625 C 166.078125 83.304688 166.390625 82.207031 166.695312 81.113281 C 167.003906 80.023438 167.304688 78.929688 167.636719 77.84375 C 168.90625 73.5 170.304688 69.214844 171.8125 65.011719 C 174.832031 56.609375 178.3125 48.535156 182.371094 41.03125 C 184.398438 37.277344 186.558594 33.667969 188.863281 30.238281 C 191.171875 26.8125 193.621094 23.566406 196.195312 20.542969 C 198.769531 17.523438 201.457031 14.726562 204.25 12.203125 C 207.042969 9.683594 209.914062 7.425781 212.808594 5.476562 C 213.175781 5.234375 213.535156 4.996094 213.898438 4.761719 C 214.078125 4.644531 214.253906 4.523438 214.4375 4.410156 C 214.621094 4.296875 214.804688 4.183594 214.984375 4.070312 C 215.347656 3.847656 215.707031 3.625 216.066406 3.40625 C 216.433594 3.195312 216.792969 2.984375 217.152344 2.777344 C 217.335938 2.675781 217.515625 2.570312 217.691406 2.46875 C 217.875 2.371094 218.054688 2.273438 218.234375 2.171875 C 218.597656 1.980469 218.957031 1.785156 219.308594 1.59375 C 219.667969 1.410156 220.03125 1.230469 220.386719 1.050781 C 220.742188 0.871094 221.09375 0.695312 221.449219 0.53125 C 221.808594 0.363281 222.160156 0.199219 222.507812 0.0351562 C 222.859375 -0.125 223.214844 -0.273438 223.5625 -0.425781 C 224.253906 -0.734375 224.953125 -1.007812 225.632812 -1.277344 C 227 -1.804688 228.328125 -2.273438 229.625 -2.664062 C 232.207031 -3.464844 234.621094 -4 236.789062 -4.363281 C 238.953125 -4.722656 240.886719 -4.894531 242.523438 -4.972656 C 244.167969 -5.042969 245.527344 -5.015625 246.574219 -4.953125 C 246.714844 -4.945312 246.84375 -4.9375 246.964844 -4.929688 C 247.089844 -4.921875 247.207031 -4.910156 247.316406 -4.902344 C 247.433594 -4.890625 247.539062 -4.882812 247.632812 -4.875 C 247.746094 -4.863281 247.847656 -4.855469 247.941406 -4.84375 C 248.050781 -4.832031 248.148438 -4.824219 248.230469 -4.8125 C 248.359375 -4.796875 248.46875 -4.785156 248.558594 -4.773438 C 248.730469 -4.75 248.816406 -4.738281 248.816406 -4.738281 " fill-opacity="1" fill-rule="nonzero"/></g><path fill="#993e25" d="M 163.007812 111.648438 C 163.007812 111.648438 162.96875 111.757812 162.898438 111.953125 C 162.863281 112.050781 162.820312 112.167969 162.769531 112.304688 C 162.714844 112.4375 162.652344 112.585938 162.582031 112.75 C 162.3125 113.398438 161.953125 114.269531 161.59375 115.136719 C 161.546875 115.246094 161.503906 115.355469 161.457031 115.460938 C 161.410156 115.566406 161.359375 115.671875 161.3125 115.777344 C 161.214844 115.984375 161.117188 116.1875 161.023438 116.386719 C 160.839844 116.78125 160.667969 117.148438 160.519531 117.464844 C 160.375 117.78125 160.25 118.046875 160.164062 118.234375 C 160.121094 118.324219 160.089844 118.398438 160.066406 118.445312 C 160.039062 118.496094 160.027344 118.519531 160.027344 118.519531 L 181.832031 129.308594 C 181.832031 129.308594 181.851562 129.273438 181.882812 129.207031 C 181.914062 129.144531 181.960938 129.046875 182.015625 128.925781 C 182.132812 128.683594 182.292969 128.335938 182.488281 127.917969 C 182.683594 127.5 182.910156 127.011719 183.15625 126.492188 C 183.277344 126.230469 183.402344 125.960938 183.527344 125.683594 C 183.59375 125.546875 183.65625 125.410156 183.722656 125.269531 C 183.78125 125.128906 183.839844 124.988281 183.898438 124.847656 C 184.367188 123.722656 184.835938 122.59375 185.1875 121.75 C 185.273438 121.539062 185.351562 121.34375 185.425781 121.171875 C 185.488281 121 185.542969 120.847656 185.589844 120.722656 C 185.683594 120.476562 185.734375 120.332031 185.734375 120.332031 L 174.371094 115.992188 L 163.007812 111.648438 " fill-opacity="1" fill-rule="nonzero"/><path fill="#993e25" d="M 154.4375 127.847656 C 154.4375 127.847656 154.179688 128.214844 153.785156 128.765625 C 153.375 129.296875 152.820312 130 152.269531 130.707031 C 152.132812 130.886719 151.988281 131.054688 151.84375 131.21875 C 151.699219 131.386719 151.558594 131.550781 151.421875 131.707031 C 151.148438 132.023438 150.894531 132.320312 150.675781 132.574219 C 150.570312 132.703125 150.46875 132.816406 150.382812 132.921875 C 150.292969 133.023438 150.207031 133.105469 150.140625 133.175781 C 150.007812 133.316406 149.929688 133.398438 149.929688 133.398438 L 158.875 141.644531 L 167.820312 149.886719 C 167.820312 149.886719 167.929688 149.773438 168.117188 149.570312 C 168.214844 149.464844 168.332031 149.347656 168.460938 149.199219 C 168.585938 149.054688 168.730469 148.890625 168.882812 148.710938 C 169.195312 148.351562 169.558594 147.929688 169.945312 147.480469 C 170.140625 147.253906 170.339844 147.019531 170.542969 146.78125 C 170.746094 146.542969 170.953125 146.304688 171.144531 146.054688 C 171.925781 145.058594 172.703125 144.0625 173.285156 143.316406 C 173.566406 142.933594 173.789062 142.609375 173.949219 142.386719 C 174.109375 142.164062 174.203125 142.035156 174.203125 142.035156 L 154.4375 127.847656 " fill-opacity="1" fill-rule="nonzero"/><path fill="#993e25" d="M 142.085938 140.429688 C 142.085938 140.429688 141.730469 140.691406 141.191406 141.082031 C 141.058594 141.179688 140.914062 141.285156 140.757812 141.398438 C 140.601562 141.503906 140.433594 141.613281 140.257812 141.726562 C 139.910156 141.957031 139.539062 142.199219 139.171875 142.445312 C 138.984375 142.566406 138.804688 142.695312 138.617188 142.808594 C 138.425781 142.921875 138.242188 143.03125 138.0625 143.136719 C 137.703125 143.351562 137.371094 143.554688 137.085938 143.726562 C 136.796875 143.898438 136.5625 144.042969 136.386719 144.132812 C 136.214844 144.226562 136.117188 144.277344 136.117188 144.277344 L 142.046875 154.898438 L 147.980469 165.519531 C 147.980469 165.519531 148.121094 165.441406 148.363281 165.308594 C 148.609375 165.179688 148.949219 164.976562 149.355469 164.730469 C 149.765625 164.484375 150.242188 164.199219 150.75 163.894531 C 151.007812 163.742188 151.269531 163.582031 151.539062 163.421875 C 151.804688 163.257812 152.066406 163.078125 152.335938 162.90625 C 152.867188 162.554688 153.394531 162.203125 153.894531 161.875 C 154.144531 161.710938 154.382812 161.550781 154.609375 161.398438 C 154.832031 161.238281 155.042969 161.085938 155.238281 160.945312 C 156.011719 160.386719 156.527344 160.011719 156.527344 160.011719 L 149.308594 150.21875 L 142.085938 140.429688 " fill-opacity="1" fill-rule="nonzero"/><path fill="#993e25" d="M 126.296875 148.671875 C 126.296875 148.671875 126.191406 148.710938 126 148.777344 C 125.90625 148.808594 125.792969 148.851562 125.660156 148.898438 C 125.53125 148.949219 125.382812 148.996094 125.214844 149.046875 C 124.886719 149.148438 124.503906 149.273438 124.089844 149.402344 C 123.886719 149.464844 123.671875 149.535156 123.457031 149.601562 C 123.347656 149.636719 123.242188 149.671875 123.128906 149.707031 C 123.019531 149.738281 122.90625 149.765625 122.796875 149.796875 C 122.351562 149.921875 121.902344 150.046875 121.484375 150.164062 C 121.277344 150.222656 121.074219 150.277344 120.882812 150.332031 C 120.691406 150.386719 120.503906 150.425781 120.335938 150.46875 C 119.65625 150.632812 119.203125 150.746094 119.203125 150.746094 L 124.851562 174.410156 C 124.851562 174.410156 125.445312 174.261719 126.34375 174.042969 C 126.566406 173.988281 126.808594 173.933594 127.0625 173.863281 C 127.320312 173.792969 127.589844 173.71875 127.867188 173.640625 C 128.425781 173.484375 129.019531 173.320312 129.613281 173.152344 C 129.761719 173.109375 129.910156 173.070312 130.058594 173.027344 C 130.203125 172.980469 130.351562 172.9375 130.496094 172.890625 C 130.789062 172.796875 131.074219 172.707031 131.351562 172.621094 C 131.90625 172.445312 132.421875 172.28125 132.867188 172.140625 C 133.085938 172.070312 133.289062 172.003906 133.46875 171.9375 C 133.648438 171.875 133.804688 171.824219 133.933594 171.777344 C 134.1875 171.683594 134.335938 171.632812 134.335938 171.632812 L 126.296875 148.671875 " fill-opacity="1" fill-rule="nonzero"/><path fill="#993e25" d="M 108.097656 152.609375 C 108.097656 152.609375 107.617188 152.65625 106.902344 152.726562 C 106.722656 152.742188 106.53125 152.761719 106.324219 152.78125 C 106.117188 152.796875 105.902344 152.8125 105.675781 152.828125 C 105.222656 152.863281 104.742188 152.898438 104.261719 152.929688 C 103.785156 152.972656 103.296875 152.984375 102.84375 153.007812 C 102.390625 153.03125 101.96875 153.050781 101.605469 153.066406 C 101.242188 153.089844 100.9375 153.089844 100.726562 153.097656 C 100.511719 153.101562 100.390625 153.105469 100.390625 153.105469 L 100.722656 165.261719 L 101.050781 177.421875 C 101.050781 177.421875 101.199219 177.417969 101.460938 177.414062 C 101.722656 177.402344 102.089844 177.398438 102.539062 177.378906 C 102.984375 177.359375 103.503906 177.332031 104.0625 177.304688 C 104.621094 177.277344 105.214844 177.257812 105.8125 177.210938 C 106.410156 177.167969 107.007812 177.125 107.566406 177.085938 C 107.847656 177.0625 108.117188 177.042969 108.371094 177.023438 C 108.628906 177 108.871094 176.976562 109.097656 176.953125 C 109.992188 176.867188 110.589844 176.8125 110.589844 176.8125 L 108.097656 152.609375 " fill-opacity="1" fill-rule="nonzero"/><path fill="#993e25" d="M 88.714844 152.835938 C 88.714844 152.835938 88.222656 152.800781 87.484375 152.746094 C 87.113281 152.722656 86.683594 152.675781 86.21875 152.632812 C 85.757812 152.589844 85.265625 152.550781 84.769531 152.5 C 83.78125 152.390625 82.796875 152.296875 82.054688 152.199219 C 81.3125 152.105469 80.820312 152.046875 80.820312 152.046875 L 79.261719 164.109375 L 77.703125 176.175781 C 77.703125 176.175781 78.28125 176.246094 79.148438 176.351562 C 80.015625 176.464844 81.179688 176.582031 82.339844 176.707031 C 82.917969 176.765625 83.503906 176.816406 84.046875 176.867188 C 84.59375 176.914062 85.101562 176.964844 85.542969 176.996094 C 86.417969 177.058594 87.003906 177.101562 87.003906 177.101562 L 88.714844 152.835938 " fill-opacity="1" fill-rule="nonzero"/><path fill="#993e25" d="M 69.097656 150.046875 C 69.097656 150.046875 67.140625 149.632812 65.203125 149.167969 C 64.234375 148.933594 63.269531 148.691406 62.550781 148.503906 C 62.191406 148.410156 61.890625 148.328125 61.679688 148.273438 C 61.472656 148.21875 61.351562 148.183594 61.351562 148.183594 L 58.175781 159.925781 L 54.996094 171.667969 C 54.996094 171.667969 55.140625 171.707031 55.386719 171.773438 C 55.632812 171.839844 55.988281 171.933594 56.410156 172.042969 C 57.257812 172.265625 58.390625 172.550781 59.523438 172.820312 C 61.785156 173.367188 64.054688 173.847656 64.054688 173.847656 L 69.097656 150.046875 " fill-opacity="1" fill-rule="nonzero"/><path fill="#993e25" d="M 237.394531 0.078125 C 237.394531 0.078125 237.214844 0.109375 236.902344 0.160156 C 236.585938 0.214844 236.152344 0.304688 235.621094 0.410156 C 234.566406 0.628906 233.175781 0.953125 231.828125 1.347656 C 230.476562 1.742188 229.148438 2.179688 228.179688 2.546875 C 227.9375 2.640625 227.710938 2.722656 227.515625 2.792969 C 227.316406 2.871094 227.148438 2.9375 227.007812 2.996094 C 226.726562 3.105469 226.566406 3.171875 226.566406 3.171875 L 231.117188 14.453125 L 235.671875 25.730469 C 235.671875 25.730469 235.761719 25.695312 235.921875 25.632812 C 236 25.597656 236.09375 25.5625 236.207031 25.515625 C 236.316406 25.476562 236.441406 25.429688 236.578125 25.382812 C 237.121094 25.171875 237.847656 24.9375 238.570312 24.722656 C 239.292969 24.511719 240.011719 24.347656 240.542969 24.234375 C 241.078125 24.125 241.425781 24.070312 241.425781 24.070312 L 237.394531 0.078125 " fill-opacity="1" fill-rule="nonzero"/><path fill="#993e25" d="M 212.703125 11.042969 C 212.703125 11.042969 212.570312 11.140625 212.34375 11.308594 C 212.226562 11.398438 212.089844 11.5 211.929688 11.621094 C 211.773438 11.742188 211.597656 11.878906 211.40625 12.03125 C 211.023438 12.335938 210.570312 12.679688 210.105469 13.066406 C 209.640625 13.457031 209.144531 13.871094 208.648438 14.285156 C 208.171875 14.710938 207.6875 15.136719 207.238281 15.535156 C 206.789062 15.9375 206.390625 16.324219 206.039062 16.648438 C 205.691406 16.976562 205.398438 17.25 205.203125 17.445312 C 205.007812 17.640625 204.894531 17.75 204.894531 17.75 L 221.941406 35.109375 C 221.941406 35.109375 222.019531 35.03125 222.15625 34.894531 C 222.292969 34.753906 222.5 34.570312 222.742188 34.339844 C 222.984375 34.117188 223.261719 33.84375 223.570312 33.570312 C 223.875 33.296875 224.203125 33.003906 224.535156 32.714844 C 224.863281 32.433594 225.199219 32.15625 225.511719 31.894531 C 225.824219 31.636719 226.125 31.410156 226.375 31.207031 C 226.5 31.109375 226.617188 31.015625 226.71875 30.933594 C 226.824219 30.855469 226.917969 30.789062 226.992188 30.734375 C 227.140625 30.625 227.226562 30.558594 227.226562 30.558594 L 212.703125 11.042969 " fill-opacity="1" fill-rule="nonzero"/><path fill="#993e25" d="M 195.234375 28.96875 C 195.234375 28.96875 194.875 29.464844 194.335938 30.203125 C 194.0625 30.574219 193.769531 31.015625 193.445312 31.480469 C 193.125 31.949219 192.773438 32.449219 192.441406 32.949219 C 192.109375 33.453125 191.777344 33.960938 191.46875 34.433594 C 191.316406 34.667969 191.167969 34.898438 191.023438 35.113281 C 190.886719 35.335938 190.757812 35.539062 190.640625 35.730469 C 190.164062 36.496094 189.851562 37.007812 189.851562 37.007812 L 210.601562 49.707031 C 210.601562 49.707031 210.855469 49.296875 211.234375 48.683594 C 211.328125 48.53125 211.429688 48.367188 211.539062 48.191406 C 211.652344 48.019531 211.773438 47.839844 211.894531 47.652344 C 212.136719 47.277344 212.398438 46.878906 212.660156 46.476562 C 212.921875 46.082031 213.195312 45.695312 213.445312 45.328125 C 213.703125 44.964844 213.929688 44.617188 214.140625 44.335938 C 214.554688 43.765625 214.832031 43.386719 214.832031 43.386719 L 205.03125 36.179688 L 195.234375 28.96875 " fill-opacity="1" fill-rule="nonzero"/><path fill="#993e25" d="M 183.136719 49.40625 C 183.136719 49.40625 182.886719 49.933594 182.507812 50.726562 C 182.125 51.519531 181.652344 52.582031 181.175781 53.644531 C 181.058594 53.910156 180.941406 54.175781 180.820312 54.4375 C 180.761719 54.570312 180.707031 54.699219 180.648438 54.828125 C 180.59375 54.957031 180.539062 55.082031 180.484375 55.207031 C 180.273438 55.707031 180.074219 56.175781 179.90625 56.578125 C 179.566406 57.378906 179.339844 57.910156 179.339844 57.910156 L 190.582031 62.5625 L 201.820312 67.210938 C 201.820312 67.210938 202.015625 66.75 202.308594 66.058594 C 202.457031 65.714844 202.628906 65.3125 202.808594 64.878906 C 202.855469 64.769531 202.902344 64.660156 202.949219 64.550781 C 202.996094 64.441406 203.046875 64.328125 203.097656 64.21875 C 203.199219 63.996094 203.300781 63.769531 203.402344 63.539062 C 203.808594 62.632812 204.210938 61.71875 204.539062 61.054688 C 204.855469 60.382812 205.066406 59.933594 205.066406 59.933594 L 194.101562 54.667969 L 183.136719 49.40625 " fill-opacity="1" fill-rule="nonzero"/><path fill="#993e25" d="M 174.5625 70.75 C 174.5625 70.75 174.378906 71.292969 174.105469 72.105469 C 173.835938 72.917969 173.5 74.003906 173.152344 75.089844 C 172.800781 76.175781 172.480469 77.265625 172.238281 78.082031 C 171.992188 78.898438 171.832031 79.441406 171.832031 79.441406 L 183.503906 82.867188 L 195.175781 86.289062 C 195.175781 86.289062 195.324219 85.796875 195.542969 85.0625 C 195.761719 84.324219 196.050781 83.339844 196.367188 82.371094 C 196.675781 81.398438 196.980469 80.421875 197.21875 79.699219 C 197.460938 78.976562 197.625 78.492188 197.625 78.492188 L 174.5625 70.75 " fill-opacity="1" fill-rule="nonzero"/><path fill="#993e25" d="M 168.367188 92.457031 C 168.367188 92.457031 168.335938 92.59375 168.277344 92.832031 C 168.214844 93.074219 168.136719 93.414062 168.042969 93.828125 C 167.855469 94.648438 167.601562 95.742188 167.351562 96.839844 C 167.285156 97.113281 167.222656 97.386719 167.164062 97.65625 C 167.105469 97.894531 167.046875 98.128906 166.996094 98.351562 C 166.886719 98.796875 166.785156 99.210938 166.703125 99.566406 C 166.53125 100.273438 166.417969 100.746094 166.417969 100.746094 L 178.214844 103.714844 L 190.011719 106.679688 C 190.011719 106.679688 190.148438 106.105469 190.359375 105.238281 C 190.460938 104.804688 190.585938 104.300781 190.714844 103.761719 C 190.777344 103.492188 190.84375 103.21875 190.910156 102.9375 C 190.96875 102.6875 191.027344 102.4375 191.085938 102.183594 C 191.316406 101.175781 191.546875 100.164062 191.722656 99.40625 C 191.808594 99.027344 191.882812 98.714844 191.9375 98.492188 C 191.992188 98.273438 192.023438 98.148438 192.023438 98.148438 L 180.195312 95.304688 L 168.367188 92.457031 " fill-opacity="1" fill-rule="nonzero"/><g clip-path="url(#2930eec21f)"><path fill="#993e25" d="M 240.078125 27.804688 C 239.980469 28.03125 239.8125 28.207031 239.59375 28.265625 C 239.15625 28.398438 238.644531 28.050781 238.457031 27.492188 C 238.363281 27.207031 238.375 26.917969 238.476562 26.6875 C 238.570312 26.457031 238.757812 26.269531 239 26.199219 C 239.238281 26.136719 239.488281 26.1875 239.691406 26.335938 C 239.894531 26.484375 240.054688 26.722656 240.128906 27.011719 C 240.199219 27.296875 240.171875 27.582031 240.078125 27.804688 Z M 226.9375 35.507812 C 226.511719 35.886719 225.84375 35.839844 225.445312 35.398438 C 225.042969 34.957031 225.085938 34.28125 225.535156 33.878906 C 225.996094 33.496094 226.667969 33.558594 227.042969 34.019531 C 227.417969 34.480469 227.375 35.148438 226.9375 35.507812 Z M 215.726562 48.527344 C 215.371094 49.066406 214.683594 49.242188 214.1875 48.917969 C 213.6875 48.597656 213.578125 47.886719 213.9375 47.332031 C 214.304688 46.785156 215.007812 46.625 215.496094 46.960938 C 215.984375 47.300781 216.082031 47.996094 215.726562 48.527344 Z M 206.769531 65.039062 C 206.492188 65.664062 205.820312 65.976562 205.28125 65.742188 C 204.734375 65.503906 204.523438 64.800781 204.804688 64.164062 C 205.089844 63.53125 205.757812 63.21875 206.296875 63.464844 C 206.839844 63.710938 207.050781 64.417969 206.769531 65.039062 Z M 199.882812 83.476562 C 199.667969 84.148438 199.035156 84.550781 198.472656 84.378906 C 197.902344 84.203125 197.617188 83.511719 197.832031 82.832031 C 198.046875 82.152344 198.683594 81.746094 199.246094 81.929688 C 199.8125 82.109375 200.097656 82.804688 199.882812 83.476562 Z M 194.679688 102.996094 C 194.640625 103.171875 194.574219 103.332031 194.484375 103.46875 C 194.441406 103.542969 194.390625 103.605469 194.339844 103.664062 C 194.3125 103.695312 194.285156 103.722656 194.253906 103.75 C 194.226562 103.777344 194.195312 103.8125 194.164062 103.839844 C 193.90625 104.070312 193.605469 104.179688 193.316406 104.113281 C 193.027344 104.046875 192.804688 103.820312 192.679688 103.507812 C 192.664062 103.46875 192.648438 103.425781 192.636719 103.390625 C 192.621094 103.355469 192.609375 103.316406 192.597656 103.277344 C 192.574219 103.203125 192.558594 103.121094 192.550781 103.039062 C 192.535156 102.875 192.542969 102.699219 192.582031 102.523438 C 192.746094 101.816406 193.347656 101.347656 193.925781 101.480469 C 194.503906 101.617188 194.84375 102.292969 194.679688 102.996094 Z M 187.277344 126.320312 C 187.113281 126.734375 186.828125 127.050781 186.527344 127.238281 C 186.226562 127.425781 185.90625 127.476562 185.632812 127.355469 C 185.363281 127.230469 185.195312 126.957031 185.136719 126.617188 C 185.082031 126.273438 185.144531 125.867188 185.304688 125.460938 C 185.640625 124.660156 186.359375 124.191406 186.90625 124.421875 C 187.453125 124.648438 187.621094 125.5 187.277344 126.320312 Z M 174.007812 148.378906 C 173.933594 148.472656 173.859375 148.558594 173.78125 148.632812 C 173.699219 148.710938 173.613281 148.777344 173.527344 148.835938 C 173.355469 148.953125 173.175781 149.042969 173 149.09375 C 172.652344 149.203125 172.328125 149.171875 172.101562 148.980469 C 171.875 148.785156 171.789062 148.472656 171.835938 148.121094 C 171.859375 147.945312 171.914062 147.757812 172 147.574219 C 172.042969 147.480469 172.09375 147.390625 172.152344 147.296875 C 172.207031 147.207031 172.269531 147.113281 172.339844 147.023438 C 172.898438 146.3125 173.730469 146.03125 174.199219 146.394531 C 174.667969 146.757812 174.582031 147.648438 174.007812 148.378906 Z M 154.328125 166.007812 C 153.550781 166.53125 152.640625 166.496094 152.332031 165.992188 C 152.019531 165.480469 152.410156 164.707031 153.167969 164.195312 C 153.925781 163.695312 154.8125 163.6875 155.144531 164.179688 C 155.480469 164.667969 155.113281 165.488281 154.328125 166.007812 Z M 131.664062 176.058594 C 131.4375 176.332031 131.082031 176.574219 130.644531 176.691406 C 129.777344 176.9375 128.945312 176.667969 128.789062 176.09375 C 128.632812 175.523438 129.195312 174.867188 130.042969 174.628906 C 130.46875 174.515625 130.886719 174.503906 131.21875 174.601562 C 131.554688 174.703125 131.808594 174.90625 131.894531 175.1875 C 131.984375 175.472656 131.890625 175.785156 131.664062 176.058594 Z M 106.046875 180.890625 C 105.832031 180.90625 105.625 180.890625 105.433594 180.847656 C 105.242188 180.800781 105.070312 180.730469 104.925781 180.640625 C 104.632812 180.460938 104.445312 180.199219 104.429688 179.902344 C 104.414062 179.609375 104.574219 179.332031 104.839844 179.121094 C 104.976562 179.019531 105.136719 178.933594 105.316406 178.871094 C 105.496094 178.804688 105.699219 178.757812 105.910156 178.746094 C 106.761719 178.683594 107.488281 179.113281 107.535156 179.703125 C 107.578125 180.296875 106.914062 180.828125 106.046875 180.890625 Z M 83.585938 179.445312 C 83.53125 180.035156 82.808594 180.460938 81.96875 180.375 C 81.132812 180.289062 80.507812 179.734375 80.574219 179.144531 C 80.640625 178.554688 81.359375 178.148438 82.183594 178.234375 C 83.011719 178.320312 83.640625 178.855469 83.585938 179.445312 Z M 60.378906 175.707031 C 60.246094 176.285156 59.476562 176.605469 58.660156 176.40625 C 57.84375 176.214844 57.300781 175.582031 57.445312 175.003906 C 57.519531 174.714844 57.746094 174.496094 58.058594 174.375 C 58.367188 174.25 58.761719 174.21875 59.164062 174.316406 C 59.964844 174.511719 60.511719 175.128906 60.378906 175.707031 Z M 244.441406 24.539062 C 244.28125 24.539062 244.082031 24.542969 243.84375 24.550781 C 242.742188 24.609375 240.824219 24.804688 238.316406 25.582031 C 235.808594 26.34375 232.710938 27.710938 229.320312 29.984375 C 227.628906 31.125 225.871094 32.503906 224.082031 34.113281 C 222.292969 35.726562 220.488281 37.601562 218.695312 39.707031 C 216.898438 41.8125 215.121094 44.15625 213.390625 46.726562 C 211.664062 49.296875 209.984375 52.089844 208.378906 55.070312 C 205.148438 61.03125 202.222656 67.765625 199.628906 75 C 198.332031 78.617188 197.105469 82.351562 195.984375 86.199219 C 195.691406 87.15625 195.421875 88.128906 195.152344 89.101562 C 194.878906 90.074219 194.597656 91.042969 194.347656 92.03125 C 194.085938 93.015625 193.828125 94.003906 193.570312 94.996094 C 193.324219 95.992188 193.078125 96.988281 192.832031 97.988281 C 192.578125 98.988281 192.355469 100 192.121094 101.011719 C 192.003906 101.515625 191.886719 102.019531 191.773438 102.527344 L 191.59375 103.304688 L 191.382812 104.179688 C 191.101562 105.347656 190.816406 106.515625 190.535156 107.6875 C 190.46875 107.980469 190.382812 108.273438 190.300781 108.566406 L 190.058594 109.441406 C 189.894531 110.027344 189.726562 110.613281 189.5625 111.199219 L 189.316406 112.078125 C 189.230469 112.371094 189.15625 112.664062 189.058594 112.953125 C 188.867188 113.539062 188.679688 114.121094 188.492188 114.707031 L 187.925781 116.457031 C 187.828125 116.75 187.742188 117.042969 187.632812 117.332031 L 187.3125 118.203125 L 186.671875 119.949219 L 186.351562 120.820312 C 186.242188 121.109375 186.144531 121.402344 186.019531 121.6875 L 184.582031 125.148438 C 182.570312 129.734375 180.214844 134.242188 177.464844 138.546875 C 174.71875 142.851562 171.574219 146.949219 168.074219 150.707031 C 164.578125 154.460938 160.726562 157.871094 156.652344 160.84375 C 152.578125 163.820312 148.285156 166.359375 143.925781 168.464844 C 139.566406 170.578125 135.140625 172.261719 130.765625 173.589844 C 126.386719 174.917969 122.058594 175.886719 117.851562 176.59375 C 113.640625 177.296875 109.546875 177.730469 105.605469 177.972656 C 101.667969 178.214844 97.878906 178.265625 94.265625 178.1875 C 87.039062 178.027344 80.511719 177.359375 74.789062 176.527344 C 69.0625 175.683594 64.136719 174.675781 60.09375 173.726562 C 56.050781 172.769531 52.894531 171.882812 50.699219 171.214844 C 49.601562 170.882812 48.75 170.613281 48.144531 170.410156 C 47.828125 170.304688 47.589844 170.222656 47.429688 170.167969 C 47.21875 170.09375 47.109375 170.058594 47.109375 170.058594 L 45.859375 173.570312 C 45.859375 173.570312 45.976562 173.613281 46.214844 173.695312 C 46.382812 173.753906 46.636719 173.839844 46.972656 173.953125 C 47.609375 174.160156 48.488281 174.441406 49.617188 174.785156 C 51.878906 175.472656 55.109375 176.382812 59.238281 177.359375 C 63.371094 178.324219 68.398438 179.359375 74.246094 180.21875 C 80.097656 181.066406 86.773438 181.75 94.183594 181.917969 C 97.890625 182 101.78125 181.945312 105.835938 181.695312 C 109.890625 181.445312 114.113281 181 118.464844 180.273438 C 122.816406 179.542969 127.300781 178.539062 131.847656 177.160156 C 136.390625 175.78125 141 174.027344 145.550781 171.824219 C 150.101562 169.625 154.589844 166.96875 158.851562 163.855469 C 163.117188 160.746094 167.148438 157.179688 170.804688 153.25 C 174.464844 149.320312 177.746094 145.039062 180.609375 140.554688 C 183.472656 136.070312 185.917969 131.390625 188 126.636719 L 189.488281 123.058594 C 189.617188 122.757812 189.71875 122.457031 189.832031 122.160156 L 190.164062 121.257812 L 190.828125 119.457031 L 191.15625 118.554688 C 191.269531 118.257812 191.355469 117.957031 191.457031 117.652344 L 192.042969 115.847656 C 192.238281 115.246094 192.429688 114.644531 192.625 114.039062 C 192.726562 113.738281 192.804688 113.4375 192.890625 113.136719 L 193.148438 112.234375 C 193.316406 111.628906 193.484375 111.027344 193.65625 110.425781 L 193.90625 109.523438 C 193.992188 109.222656 194.078125 108.921875 194.148438 108.621094 C 194.4375 107.417969 194.726562 106.214844 195.015625 105.015625 L 195.234375 104.117188 L 195.410156 103.34375 C 195.527344 102.84375 195.640625 102.347656 195.757812 101.847656 C 195.988281 100.851562 196.207031 99.851562 196.457031 98.867188 C 196.699219 97.878906 196.941406 96.894531 197.183594 95.914062 C 197.4375 94.9375 197.695312 93.964844 197.949219 92.996094 C 198.199219 92.019531 198.472656 91.066406 198.742188 90.109375 C 199.011719 89.152344 199.273438 88.195312 199.558594 87.253906 C 200.664062 83.472656 201.867188 79.800781 203.140625 76.257812 C 205.679688 69.175781 208.535156 62.605469 211.660156 56.84375 C 213.21875 53.957031 214.832031 51.269531 216.488281 48.808594 C 218.144531 46.347656 219.835938 44.113281 221.53125 42.125 C 223.230469 40.136719 224.921875 38.378906 226.585938 36.878906 C 228.246094 35.382812 229.863281 34.117188 231.40625 33.078125 C 234.488281 31.007812 237.242188 29.808594 239.414062 29.148438 C 241.46875 28.511719 243.003906 28.339844 243.867188 28.285156 L 244.441406 24.539062 " fill-opacity="1" fill-rule="nonzero"/></g></svg>